<svg xmlns="http://www.w3.org/2000/svg" viewBox="0 0 1024 1024">
  <defs>
    <linearGradient id="bg" x1="0" y1="0" x2="0" y2="1"><stop offset="0" stop-color="#FFFFFF"/><stop offset="1" stop-color="#E3E7EE"/></linearGradient>
    <linearGradient id="back" x1="0" y1="0" x2="0" y2="1"><stop offset="0" stop-color="#6CB6F5"/><stop offset="1" stop-color="#3E8FE0"/></linearGradient>
    <linearGradient id="front" x1="0" y1="0" x2="0" y2="1"><stop offset="0" stop-color="#8FCBFA"/><stop offset="1" stop-color="#58A8F0"/></linearGradient>
    <linearGradient id="drop" x1="0" y1="0" x2="0" y2="1"><stop offset="0" stop-color="#5EE59A"/><stop offset="1" stop-color="#1DB866"/></linearGradient>
    <filter id="shadow" x="-20%" y="-20%" width="140%" height="140%"><feDropShadow dx="0" dy="12" stdDeviation="16" flood-color="#1B3A66" flood-opacity="0.25"/></filter>
  </defs>
  <path id="background" d="M 285.4 100 H 738.6 C 841 100 924 183 924 285.4 V 738.6 C 924 841 841 924 738.6 924 H 285.4 C 183 924 100 841 100 738.6 V 285.4 C 100 183 183 100 285.4 100 Z" fill="url(#bg)"/>
  <g id="icon" filter="url(#shadow)">
    <path d="M 196 330 C 196 302 218 280 246 280 H 410 C 428 280 440 288 450 302 L 476 340 H 778 C 806 340 828 362 828 390 V 744 C 828 772 806 794 778 794 H 246 C 218 794 196 772 196 744 Z" fill="url(#back)"/>
    <path d="M 196 420 C 196 392 218 370 246 370 H 778 C 806 370 828 392 828 420 V 744 C 828 772 806 794 778 794 H 246 C 218 794 196 772 196 744 Z" fill="url(#front)"/>
    <path d="M 512 438 C 556 494 610 552 610 618 A 98 98 0 1 1 414 618 C 414 552 468 494 512 438 Z" fill="url(#drop)"/>
    <path d="M 512 575 V 660 M 476 628 L 512 664 L 548 628" fill="none" stroke="#FFFFFF" stroke-width="24" stroke-linecap="round" stroke-linejoin="round"/>
  </g>
</svg>
